<?xml version="1.0" encoding="UTF-8"?>
<svg xmlns="http://www.w3.org/2000/svg" viewBox="0 0 99.1 99.1">
  <defs>
    <style>
      .cls-1 {
        stroke: #7d67a5;
        stroke-linecap: round;
        stroke-miterlimit: 10;
        stroke-width: 1.5px;
      }

      .cls-1, .cls-2 {
        fill: none;
      }

      .cls-3 {
        fill: #7d67a5;
      }

      .cls-4 {
        fill: #a28dc2;
      }
    </style>
  </defs>
  <g id="Borders">
    <rect class="cls-2" width="99.1" height="99.1"/>
    <rect class="cls-2" x="0" width="99.1" height="12.48"/>
    <rect class="cls-2" x="0" y="86.62" width="98.87" height="12.48"/>
    <rect class="cls-2" x="43.31" y="43.31" width="99.1" height="12.48" transform="translate(142.41 -43.31) rotate(90)"/>
    <rect class="cls-2" x="-43.31" y="43.31" width="99.1" height="12.48" transform="translate(55.79 43.31) rotate(90)"/>
  </g>
  <g id="Icons">
    <path class="cls-3" d="m29.43,29.91c.27-.03.55-.06.82-.07-1.95,2.13-3.24,4.84-3.59,7.78-.62,0-1.27.04-1.91.12-2.38.3-4.55,1.19-6.37,2.5,1.04-5.31,5.38-9.6,11.05-10.33Z"/>
    <path class="cls-3" d="m85.86,47.03c-2.1-6.2-8.34-10.27-15.07-9.41-.9.12-1.75.31-2.58.59-2.85-4.34-8.01-6.93-13.54-6.22-.66.09-1.31.21-1.93.4-2.73-4.79-8.16-7.71-13.97-6.97-2.85.37-5.39,1.57-7.4,3.32,1.09-5.26,5.41-9.48,11.03-10.22,5.37-.69,10.39,2.02,12.91,6.44.58-.18,1.18-.28,1.79-.37,5.11-.65,9.88,1.74,12.51,5.75.78-.26,1.56-.43,2.39-.54,7.09-.91,13.6,4.09,14.51,11.19.28,2.11.03,4.17-.65,6.04Z"/>
    <line class="cls-1" x1="65.39" y1="69.4" x2="62.01" y2="75.17"/>
    <line class="cls-1" x1="47.52" y1="69.4" x2="44.13" y2="75.17"/>
    <line class="cls-1" x1="29.62" y1="69.4" x2="26.24" y2="75.17"/>
    <line class="cls-1" x1="54.09" y1="76.08" x2="50.7" y2="81.85"/>
    <line class="cls-1" x1="36.19" y1="76.08" x2="32.8" y2="81.85"/>
    <path class="cls-4" d="m74.37,65.43c-.59.08-1.21.11-1.78.11H28.33c-8.09,0-14.71-4.42-15.69-12.11-1.01-7.67,4.42-14.71,12.11-15.69.65-.08,1.29-.11,1.92-.11.74-6.21,5.62-11.35,12.11-12.2,5.81-.74,11.23,2.18,13.97,6.96.63-.19,1.27-.3,1.94-.4,5.52-.7,10.68,1.88,13.53,6.22.84-.28,1.69-.47,2.58-.59,7.67-.99,14.71,4.42,15.69,12.11,1.01,7.67-4.42,14.71-12.11,15.69Z"/>
  </g>
</svg>