<?xml version="1.0" encoding="UTF-8"?>
<svg xmlns="http://www.w3.org/2000/svg" viewBox="0 0 99.1 99.1">
  <defs>
    <style>
      .cls-1 {
        fill: none;
      }

      .cls-2 {
        fill: #7d67a5;
      }

      .cls-3 {
        fill: #9a4095;
      }

      .cls-4 {
        fill: #a28dc2;
      }
    </style>
  </defs>
  <g id="Borders">
    <rect class="cls-1" width="99.1" height="99.1"/>
    <rect class="cls-1" x="0" width="99.1" height="12.48"/>
    <rect class="cls-1" x="0" y="86.62" width="98.87" height="12.48"/>
    <rect class="cls-1" x="43.31" y="43.31" width="99.1" height="12.48" transform="translate(142.41 -43.31) rotate(90)"/>
    <rect class="cls-1" x="-43.31" y="43.31" width="99.1" height="12.48" transform="translate(55.79 43.31) rotate(90)"/>
  </g>
  <g id="Icons">
    <polygon class="cls-3" points="42.73 79.88 44.57 70.27 41.39 70.27 42.38 62.5 49.94 62.5 48.24 65.6 52.56 65.6 42.73 79.88"/>
    <path class="cls-3" d="m27.13,72.79l1.01-5.26h-1.74l.63-4.99c.13-.01.27-.02.4-.04h4.08l-1.36,2.48h2.36l-5.38,7.81Z"/>
    <polygon class="cls-3" points="62.17 72.79 63.18 67.53 61.44 67.53 62.08 62.5 66.55 62.5 65.19 64.98 67.56 64.98 62.17 72.79"/>
    <path class="cls-2" d="m29.33,29.29h.04c-1.9,1.98-3.15,4.56-3.48,7.36-.58,0-1.18.04-1.78.11-2.11.27-4.04,1.03-5.68,2.16,1.27-4.98,5.48-8.93,10.9-9.63Z"/>
    <path class="cls-2" d="m81.02,52.62c.37-1.51.47-3.11.26-4.75-.92-7.12-7.44-12.13-14.54-11.22-.82.11-1.61.29-2.39.55-2.63-4.03-7.41-6.42-12.53-5.77-.61.09-1.21.2-1.79.37-2.53-4.42-7.55-7.13-12.93-6.45-2.12.28-4.06,1.06-5.7,2.2,1.26-4.99,5.47-8.94,10.89-9.65,5.37-.68,10.39,2.02,12.91,6.44.58-.18,1.18-.28,1.79-.37,5.11-.65,9.88,1.74,12.51,5.75.77-.26,1.56-.43,2.38-.54,7.09-.91,13.6,4.09,14.51,11.19.65,4.92-1.57,9.56-5.37,12.25Z"/>
    <path class="cls-4" d="m70.07,62.4c-.54.07-1.12.11-1.65.11H27.44c-7.1.93-13.62-4.09-14.53-11.21-.93-7.1,4.09-13.62,11.21-14.53.6-.07,1.19-.11,1.77-.11.69-5.75,5.2-10.51,11.21-11.3,5.38-.69,10.4,2.02,12.93,6.45.58-.18,1.18-.28,1.79-.37,5.11-.65,9.89,1.74,12.53,5.76.77-.26,1.56-.44,2.39-.54,7.1-.91,13.62,4.09,14.53,11.21.93,7.1-4.09,13.62-11.21,14.53Z"/>
  </g>
</svg>