<?xml version="1.0" encoding="UTF-8"?>
<svg id="Icons" xmlns="http://www.w3.org/2000/svg" viewBox="0 0 74.1 47.17">
  <defs>
    <style>
      .cls-1 {
        fill: #c6b6d9;
      }

      .cls-2 {
        fill: #a28dc2;
      }
    </style>
  </defs>
  <path class="cls-2" d="m16.69,11.57c.34-.04.69-.07,1.04-.09-1.95,2.13-3.23,4.84-3.58,7.78-.63,0-1.27.04-1.92.11-2.51.32-4.79,1.29-6.67,2.72,1.01-5.4,5.39-9.78,11.13-10.52Z"/>
  <path class="cls-2" d="m73.37,28.71c-2.09-6.23-8.35-10.32-15.1-9.45-.89.11-1.74.3-2.58.59-2.85-4.35-8.01-6.93-13.53-6.23-.67.1-1.31.21-1.94.4-2.73-4.78-8.16-7.7-13.96-6.96-2.97.38-5.61,1.68-7.66,3.57C19.59,5.24,23.97.87,29.7.11c5.4-.69,10.43,2.03,12.97,6.48.58-.18,1.18-.28,1.8-.37,5.12-.65,9.92,1.75,12.56,5.79.77-.26,1.57-.44,2.4-.55,7.11-.91,13.65,4.12,14.56,11.27.28,2.09.04,4.13-.62,5.98Z"/>
  <path class="cls-1" d="m61.85,47.06c-.59.08-1.21.11-1.78.11H15.81c-8.09,0-14.71-4.42-15.69-12.11-1.01-7.67,4.42-14.71,12.11-15.69.65-.08,1.29-.11,1.92-.11.74-6.21,5.62-11.35,12.11-12.2,5.81-.74,11.23,2.18,13.97,6.96.63-.19,1.27-.3,1.94-.4,5.52-.7,10.68,1.88,13.53,6.22.84-.28,1.69-.47,2.58-.59,7.67-.99,14.71,4.42,15.69,12.11,1.01,7.67-4.42,14.71-12.11,15.69Z"/>
</svg>