<?xml version="1.0" encoding="UTF-8"?>
<svg id="Icons" xmlns="http://www.w3.org/2000/svg" viewBox="0 0 74.08 43.53">
  <defs>
    <style>
      .cls-1 {
        fill: #ae5ba3;
      }

      .cls-2 {
        fill: #c6b6d9;
      }
    </style>
  </defs>
  <path class="cls-1" d="m67.66,15.31c0,.79-.06,1.57-.18,2.32-2.65-1.66-5.87-2.44-9.21-2.01-.89.11-1.74.3-2.58.59-2.85-4.35-8.01-6.93-13.53-6.23-.67.1-1.31.21-1.94.4-.42-.74-.91-1.44-1.47-2.09,2.54-4.93,7.68-8.29,13.6-8.29,8.46,0,15.31,6.86,15.31,15.31Z"/>
  <path class="cls-2" d="m61.85,43.42c-.59.08-1.21.11-1.78.11H15.81C7.72,43.53,1.11,39.11.12,31.43c-1.01-7.67,4.42-14.71,12.11-15.69.65-.08,1.29-.11,1.92-.11.74-6.21,5.62-11.35,12.11-12.2,5.81-.74,11.23,2.18,13.97,6.96.63-.19,1.27-.3,1.94-.4,5.52-.7,10.68,1.88,13.53,6.22.84-.28,1.69-.47,2.58-.59,7.67-.99,14.71,4.42,15.69,12.11,1.01,7.67-4.42,14.71-12.11,15.69Z"/>
</svg>