<?xml version="1.0" encoding="UTF-8"?>
<svg id="Icons" xmlns="http://www.w3.org/2000/svg" viewBox="0 0 74.04 65.3">
  <defs>
    <style>
      .cls-1 {
        fill: none;
        stroke: #7d67a5;
        stroke-linecap: round;
        stroke-miterlimit: 10;
        stroke-width: 1.5px;
      }

      .cls-2 {
        fill: #7d67a5;
      }

      .cls-3 {
        fill: #9a4095;
      }

      .cls-4 {
        fill: #a28dc2;
      }
    </style>
  </defs>
  <path class="cls-3" d="m68.1,14.17c0,.74-.06,1.47-.17,2.19-2.45-1.53-5.43-2.26-8.52-1.86-.82.1-1.61.28-2.39.54-2.63-4.02-7.4-6.41-12.51-5.76-.62.09-1.21.2-1.79.37-.4-.69-.86-1.35-1.38-1.95,2.35-4.57,7.11-7.7,12.6-7.7,7.82,0,14.16,6.34,14.16,14.17Z"/>
  <line class="cls-1" x1="53.02" y1="52.1" x2="49.63" y2="57.88"/>
  <line class="cls-1" x1="35.14" y1="52.1" x2="31.76" y2="57.88"/>
  <line class="cls-1" x1="17.25" y1="52.1" x2="13.86" y2="57.88"/>
  <line class="cls-1" x1="41.71" y1="58.78" x2="38.33" y2="64.55"/>
  <line class="cls-1" x1="23.82" y1="58.78" x2="20.43" y2="64.55"/>
  <path class="cls-2" d="m15.83,14.77c-1.48,1.84-2.45,4.1-2.75,6.52-.58,0-1.17.04-1.77.11-1.86.24-3.57.86-5.07,1.77,1.46-4.17,5.03-7.45,9.59-8.4Z"/>
  <path class="cls-2" d="m67.8,38.44c.65-1.85.89-3.88.62-5.95-.91-7.11-7.43-12.11-14.52-11.2-.82.11-1.61.28-2.39.54-2.63-4.02-7.4-6.4-12.51-5.75-.62.08-1.21.19-1.79.36-2.53-4.42-7.55-7.12-12.93-6.44-1.85.24-3.56.86-5.06,1.77,1.58-4.46,5.55-7.9,10.57-8.56,5.38-.69,10.4,2.02,12.93,6.44.58-.17,1.17-.28,1.79-.37,5.11-.65,9.88,1.74,12.51,5.76.78-.26,1.57-.44,2.39-.54,7.1-.91,13.61,4.09,14.52,11.2.69,5.24-1.87,10.17-6.13,12.74Z"/>
  <path class="cls-4" d="m57.22,47.01c-.54.07-1.12.11-1.65.11H14.63c-7.09.93-13.61-4.09-14.52-11.2-.93-7.09,4.09-13.61,11.2-14.52.6-.07,1.19-.11,1.77-.11.68-5.74,5.2-10.5,11.2-11.29,5.37-.68,10.39,2.02,12.92,6.44.58-.18,1.18-.28,1.79-.37,5.11-.65,9.88,1.74,12.52,5.76.77-.26,1.56-.44,2.39-.54,7.09-.91,13.61,4.09,14.52,11.2.93,7.09-4.09,13.61-11.2,14.52Z"/>
</svg>