<?xml version="1.0" encoding="UTF-8"?>
<svg id="Icons" xmlns="http://www.w3.org/2000/svg" viewBox="0 0 74.08 40.23">
  <defs>
    <style>
      .cls-1 {
        fill: #c6b6d9;
      }
    </style>
  </defs>
  <path class="cls-1" d="m61.85,40.12c-.59.08-1.21.11-1.78.11H15.81C7.72,40.23,1.11,35.81.12,28.13c-1.01-7.67,4.42-14.71,12.11-15.69.65-.08,1.29-.11,1.92-.11C14.88,6.11,19.76.97,26.25.11c5.81-.74,11.23,2.18,13.97,6.96.63-.19,1.27-.3,1.94-.4,5.52-.7,10.68,1.88,13.53,6.22.84-.28,1.69-.47,2.58-.59,7.67-.99,14.71,4.42,15.69,12.11,1.01,7.67-4.42,14.71-12.11,15.69Z"/>
</svg>