<?xml version="1.0" encoding="UTF-8"?>
<svg id="Icons" xmlns="http://www.w3.org/2000/svg" viewBox="0 0 74.1 64.18">
  <defs>
    <style>
      .cls-1 {
        fill: none;
        stroke: #7d67a5;
        stroke-linecap: round;
        stroke-miterlimit: 10;
        stroke-width: 1.5px;
      }

      .cls-2 {
        fill: #7d67a5;
      }

      .cls-3 {
        fill: #a28dc2;
      }
    </style>
  </defs>
  <path class="cls-2" d="m16.91,11.5c.27-.03.55-.06.82-.07-1.95,2.13-3.24,4.84-3.59,7.78-.62,0-1.27.04-1.91.12-2.38.3-4.55,1.19-6.37,2.5,1.04-5.31,5.38-9.6,11.05-10.33Z"/>
  <path class="cls-2" d="m73.34,28.62c-2.1-6.2-8.34-10.27-15.07-9.41-.9.12-1.75.31-2.58.59-2.85-4.34-8.01-6.93-13.54-6.22-.66.09-1.31.21-1.93.4-2.73-4.79-8.16-7.71-13.97-6.97-2.85.37-5.39,1.57-7.4,3.32C19.94,5.07,24.26.85,29.88.11c5.37-.69,10.39,2.02,12.91,6.44.58-.18,1.18-.28,1.79-.37,5.11-.65,9.88,1.74,12.51,5.75.78-.26,1.56-.43,2.39-.54,7.09-.91,13.6,4.09,14.51,11.19.28,2.11.03,4.17-.65,6.04Z"/>
  <line class="cls-1" x1="52.88" y1="50.98" x2="49.49" y2="56.76"/>
  <line class="cls-1" x1="35" y1="50.98" x2="31.62" y2="56.76"/>
  <line class="cls-1" x1="17.11" y1="50.98" x2="13.72" y2="56.76"/>
  <line class="cls-1" x1="41.57" y1="57.66" x2="38.19" y2="63.43"/>
  <line class="cls-1" x1="23.68" y1="57.66" x2="20.29" y2="63.43"/>
  <path class="cls-3" d="m61.85,47.01c-.59.08-1.21.11-1.78.11H15.81c-8.09,0-14.71-4.42-15.69-12.11-1.01-7.67,4.42-14.71,12.11-15.69.65-.08,1.29-.11,1.92-.11.74-6.21,5.62-11.35,12.11-12.2,5.81-.74,11.23,2.18,13.97,6.96.63-.19,1.27-.3,1.94-.4,5.52-.7,10.68,1.88,13.53,6.22.84-.28,1.69-.47,2.58-.59,7.67-.99,14.71,4.42,15.69,12.11,1.01,7.67-4.42,14.71-12.11,15.69Z"/>
</svg>