<?xml version="1.0" encoding="UTF-8"?>
<svg id="Icons" xmlns="http://www.w3.org/2000/svg" viewBox="0 0 68.43 72.14">
  <defs>
    <style>
      .cls-1 {
        fill: #a28dc2;
      }
    </style>
  </defs>
  <path class="cls-1" d="m68.4,40.8c-.12-.44-.5-.74-.96-.74-.09,0-.18,0-.27.03l-16.02,4.3-.4.1-.36-.21-5.78-3.37-.74-.42.3-.8c.44-1.13.66-2.34.66-3.61s-.22-2.51-.66-3.64l-.3-.79.74-.43,5.78-3.37.36-.21.4.11,16.03,4.3c.08.02.17.03.26.03.45,0,.84-.31.96-.74.14-.53-.17-1.08-.71-1.22l-12.16-3.26-2.32-.62,2.08-1.21,9.78-5.64c.24-.13.41-.35.48-.6s.03-.52-.1-.75c-.18-.31-.51-.49-.87-.49-.17,0-.35.04-.51.13l-9.74,5.62-2.09,1.21.62-2.33,3.25-12.13c.14-.53-.17-1.08-.71-1.22-.08-.02-.17-.04-.26-.04-.44,0-.84.31-.96.75l-4.28,15.97-.11.41-.36.2-5.82,3.39-.73.43-.54-.66c-1.6-1.94-3.83-3.24-6.29-3.64l-.84-.14v-7.99l.29-.29,11.71-11.71c.39-.39.39-1.02,0-1.41-.18-.19-.44-.29-.7-.29s-.52.1-.71.29l-8.88,8.88-1.71,1.71V1c0-.55-.45-1-1-1s-.99.46-.99,1v13.68l-1.71-1.71-8.88-8.87c-.18-.19-.43-.29-.7-.29s-.52.1-.71.29c-.18.19-.29.44-.29.71s.11.51.29.7l11.7,11.7.3.29v8l-.84.14c-2.46.41-4.7,1.7-6.29,3.64l-.54.66-.74-.43-5.8-3.38-.36-.21-.11-.4-4.29-15.99c-.12-.44-.5-.74-.95-.74-.09,0-.18.02-.27.04-.53.14-.85.69-.7,1.22l3.24,12.13.69,2.57-2.18-1.46-9.72-5.6c-.16-.1-.34-.14-.52-.14-.36,0-.68.18-.86.49-.12.22-.16.5-.09.76.07.25.23.46.46.58l9.76,5.63,2.09,1.21-2.3.64L.74,30.12c-.53.14-.85.69-.7,1.22.11.43.51.74.96.74.09,0,.18-.01.26-.03l15.99-4.29.38-.1.35.19,5.84,3.37.74.43-.31.79c-.43,1.13-.65,2.36-.65,3.64s.22,2.48.65,3.61l.31.8-.74.43-5.81,3.35-.36.21-.4-.1-15.99-4.29c-.09-.02-.18-.03-.27-.03-.45,0-.83.3-.95.74-.15.53.17,1.08.7,1.22l12.15,3.26,2.33.62-2.09,1.21-9.77,5.63c-.24.14-.4.34-.47.6-.07.26-.03.53.1.77.17.29.52.5.88.5.14,0,.32-.06.48-.16l9.76-5.62,2.09-1.21-.62,2.33-3.25,12.13c-.15.54.17,1.08.7,1.23.08.02.17.03.26.03.45,0,.85-.3.96-.74l4.29-15.99.11-.4.36-.21,5.81-3.35.73-.42.54.64c1.6,1.93,3.84,3.22,6.29,3.63l.84.13v8l-.3.29-11.7,11.7c-.18.19-.29.44-.29.71s.11.52.29.7c.19.19.44.3.71.3s.52-.11.7-.3l8.88-8.87,1.71-1.71v13.69c0,.54.45,1,.99,1s1-.45,1-1v-13.7l10.59,10.59c.19.19.44.3.71.3s.52-.11.7-.3c.39-.38.39-1.02,0-1.41l-11.71-11.7-.29-.3v-7.99l.84-.13c2.45-.4,4.68-1.69,6.29-3.63l.54-.64.73.42,5.81,3.35.36.21.12.41,4.28,15.98c.12.44.52.74.97.74.09,0,.17-.01.26-.03.53-.15.84-.69.7-1.23l-3.25-12.12-.62-2.33,2.09,1.2,9.74,5.62c.18.1.36.16.51.16.35,0,.68-.2.87-.52.13-.23.17-.49.1-.74-.07-.26-.24-.47-.47-.6l-9.76-5.63-2.1-1.2,2.32-.64,12.16-3.26c.53-.14.84-.69.7-1.22Zm-25.88-2.48c-.37,1.44-1.16,2.79-2.25,3.86-1.09,1.06-2.41,1.81-3.8,2.19-.68.2-1.43.3-2.26.3-.75,0-1.52-.11-2.27-.33-1.38-.34-2.73-1.12-3.79-2.17-1.1-1.1-1.88-2.45-2.26-3.89-.19-.64-.3-1.39-.3-2.2s.11-1.54.31-2.25c.37-1.42,1.15-2.76,2.25-3.86,1.06-1.06,2.41-1.83,3.82-2.18.72-.22,1.49-.33,2.24-.33.83,0,1.57.1,2.28.31,1.37.37,2.69,1.13,3.77,2.19,1.1,1.06,1.89,2.41,2.27,3.9.2.68.3,1.41.3,2.22s-.1,1.56-.31,2.24Z"/>
</svg>