<?xml version="1.0" encoding="UTF-8"?>
<svg id="Icons" xmlns="http://www.w3.org/2000/svg" viewBox="0 0 73.71 62.08">
  <defs>
    <style>
      .cls-1 {
        fill: #ae5ba3;
      }

      .cls-2 {
        fill: #c6b6d9;
      }

      .cls-3 {
        fill: #a28dc2;
      }
    </style>
  </defs>
  <polygon class="cls-1" points="29.94 62.08 31.78 52.47 28.6 52.47 29.59 44.7 37.15 44.7 35.45 47.8 39.77 47.8 29.94 62.08"/>
  <path class="cls-1" d="m14.34,54.99l1.01-5.26h-1.74l.63-4.99c.13-.01.27-.02.4-.04h4.08l-1.36,2.48h2.36l-5.38,7.81Z"/>
  <polygon class="cls-1" points="49.39 54.99 50.39 49.73 48.65 49.73 49.3 44.7 53.76 44.7 52.4 47.18 54.77 47.18 49.39 54.99"/>
  <path class="cls-3" d="m16.54,11.49h.04c-1.9,1.98-3.15,4.56-3.48,7.36-.58,0-1.18.04-1.78.11-2.11.27-4.04,1.04-5.68,2.17,1.27-4.99,5.47-8.94,10.9-9.64Z"/>
  <path class="cls-3" d="m68.23,34.82c.37-1.51.47-3.11.26-4.75-.92-7.12-7.44-12.13-14.53-11.22-.83.11-1.62.29-2.39.55-2.64-4.03-7.42-6.42-12.53-5.77-.62.09-1.22.2-1.8.37-2.53-4.42-7.55-7.13-12.93-6.45-2.12.28-4.05,1.06-5.7,2.19C19.88,4.76,24.08.81,29.5.1c5.37-.68,10.39,2.02,12.91,6.44.58-.18,1.18-.28,1.79-.37,5.11-.65,9.88,1.74,12.51,5.75.77-.26,1.56-.43,2.38-.54,7.09-.91,13.6,4.09,14.51,11.19.65,4.92-1.57,9.56-5.37,12.25Z"/>
  <path class="cls-2" d="m57.28,44.6c-.54.07-1.12.11-1.65.11H14.64c-7.1.93-13.62-4.09-14.53-11.21-.93-7.1,4.09-13.62,11.21-14.53.6-.07,1.19-.11,1.77-.11.69-5.75,5.2-10.51,11.21-11.3,5.38-.69,10.4,2.02,12.93,6.45.58-.18,1.18-.28,1.79-.37,5.11-.65,9.89,1.74,12.53,5.76.77-.26,1.56-.44,2.39-.54,7.1-.91,13.62,4.09,14.53,11.21.93,7.1-4.09,13.62-11.21,14.53Z"/>
</svg>